<?xml version="1.0" encoding="utf-8"?>
<!-- Generator: Adobe Illustrator 18.0.0, SVG Export Plug-In . SVG Version: 6.00 Build 0)  -->
<!DOCTYPE svg PUBLIC "-//W3C//DTD SVG 1.1//EN" "http://www.w3.org/Graphics/SVG/1.1/DTD/svg11.dtd">
<svg version="1.1" id="Capa_1" xmlns:sketch="http://www.bohemiancoding.com/sketch/ns"
	 xmlns="http://www.w3.org/2000/svg" xmlns:xlink="http://www.w3.org/1999/xlink" x="0px" y="0px" viewBox="0 0 32 32"
	 enable-background="new 0 0 32 32" xml:space="preserve">
<title>icon 22 one finger</title>
<desc>Created with Sketch.</desc>
<path d="M25.5,13c-0.6,0-1.1,0.2-1.5,0.5v0c0-1.4-1.1-2.5-2.5-2.5c-0.6,0-1.2,0.2-1.7,0.6c-0.4-1-1.3-1.6-2.3-1.6
	c-0.6,0-1.1,0.2-1.5,0.5v-5C16,4.1,14.9,3,13.5,3C12.1,3,11,4.1,11,5.5v8.9c-2-1.8-4.2-3.2-5.6-1.8c-2,2,2.2,5.9,5.4,11.8
	c2.3,4.1,5.5,5.6,8.7,5.6c4.7,0,8.5-3.8,8.5-8.5v-6C28,14.1,26.9,13,25.5,13z M27,17.7v3.8c0,3.9-3.4,7.5-7.5,7.5
	c-3.8,0-6-2.1-7.8-5C7.8,17.4,5,14.4,6.1,13.3c1.1-1.1,3.8,1.3,5.9,3.5V5.5C12,4.7,12.7,4,13.5,4C14.3,4,15,4.7,15,5.5V16h1v-3.5
	c0-0.8,0.7-1.5,1.5-1.5c0.8,0,1.5,0.7,1.5,1.5V15h1v-1.5c0-0.8,0.7-1.5,1.5-1.5c0.8,0,1.5,0.7,1.5,1.5V16h1v-0.5
	c0-0.8,0.7-1.5,1.5-1.5c0.8,0,1.5,0.7,1.5,1.5V17.7z"/>
</svg>
