<?xml version="1.0" encoding="utf-8"?>
<!-- Generator: Adobe Illustrator 16.0.0, SVG Export Plug-In . SVG Version: 6.00 Build 0)  -->
<!DOCTYPE svg PUBLIC "-//W3C//DTD SVG 1.1//EN" "http://www.w3.org/Graphics/SVG/1.1/DTD/svg11.dtd">
<svg version="1.1" id="Capa_1" xmlns="http://www.w3.org/2000/svg" xmlns:xlink="http://www.w3.org/1999/xlink" x="0px" y="0px"
	 width="289.543px" height="89.426px" viewBox="395.43 343.52 289.543 89.426"
	 enable-background="new 395.43 343.52 289.543 89.426" xml:space="preserve">
<g>
	<g>
		<g>
			<g>
				<g>
					<path fill="#FFFFFF" d="M494.695,395.722c0-0.19-0.19-0.381,0.19-0.19c0.952-0.571,1.714-1.523,2.476-2.857
						c0.763-1.333,1.144-2.856,1.144-4.38c0-1.524-0.381-2.667-1.524-3.619c-1.143-0.952-2.856-1.524-5.333-1.715
						c-0.762-2.666-1.523-5.523-2.095-8.57l-2.096-9.333l-1.523-6.477c-0.381-1.143-1.143-2.095-2.476-2.666
						c-1.334-0.571-2.667-0.952-4.19-1.144c-1.524-0.19-2.667-0.19-3.429-0.19c-1.333,0-3.048,1.334-4.952,4
						c-1.904,2.477-3.81,5.905-5.714,10.095c-2.096,4.19-3.81,8.762-5.523,13.523c-1.524,4.762-3.048,9.333-4,13.904
						c-0.762,0-1.333,0.19-1.905,0.19c-0.571,0-1.333,0-1.904,0c-2.285,0,0.381,10.857,2.285,9.904c0.572-0.19,0,1.144,0,1.715
						c0.191,1.904,0.763,3.618,2.286,4.952c1.523,1.333,2.667,2.095,5.714,2.285c0.19-1.714,3.619-12.189,4.571-15.428
						c2.477-1.333,4.952-2.286,7.429-3.238c2.285-0.952,4.952-1.523,7.618-1.904C483.839,403.722,496.599,400.864,494.695,395.722z
						 M474.886,388.294c-1.905,0.952-3.81,1.904-5.904,2.856c1.333-4,2.666-8,3.999-11.999c1.334-4,2.857-7.81,4.381-11.429h0.381
						c0.763,6.477,1.715,12.381,2.667,17.904C478.696,386.389,476.791,387.341,474.886,388.294z"/>
					<path fill="#FFFFFF" d="M486.314,402.198c-1.523-0.572-3.619-0.19-6.095,0.762c-2.286,1.143-4.381,2.476-6.285,4.381
						c-1.905,1.904-3.619,3.809-5.524,6.095c-1.904,2.285-3.809,4.381-6.095,6.476c-0.19,0.19-0.381,0.381-0.571,0.381
						s-0.381,0.19-0.571,0.19c-1.523,0.571-3.048,0.571-4.19-0.19c-1.333-0.762-2.477-1.904-3.429-3.428
						c-0.381-0.381-0.571-0.763-0.762-1.144c0-0.19-0.19-0.381-0.19-0.571c-1.714-3.237-2.857-7.237-3.429-12.38
						c-0.762-5.143-1.143-11.048-1.143-17.714c-0.19-2.477-0.19-5.523-0.19-8.762c0-3.429,0-7.619-0.19-12.762
						c-0.19-0.571-0.762-1.333-1.904-1.904c-0.953-0.571-2.286-1.143-3.619-1.523c-1.524-0.381-2.857-0.571-4.19-0.571
						c-1.143,0-1.714,0-2.667,0.571c-2.095,1.143-0.952,5.333-0.952,6.095c0.19,5.143-1.714,9.143-2.666,12.19
						c-0.953,3.047-1.905,5.523-2.667,7.237c-0.571,0.952-0.952,1.904-1.523,2.667c-0.571,0.762-0.952,1.523-1.524,1.904
						c0-0.381-0.189-0.762-0.381-1.333c-0.19-0.381-0.381-1.144-0.571-1.905c-0.19-1.333-0.762-3.237-1.333-5.714
						c-0.762-2.476-1.333-5.714-2.285-9.714c-0.572-2.857-1.144-5.333-1.524-7.237c-0.381-1.905-0.952-3.429-1.904-4.381
						c-0.952-1.144-2.667-1.715-4.381-1.524c-3.81,0.381-6.476,5.905-4.381,9.143c-1.714,7.81-3.429,14.856-4.762,19.809
						s-2.286,8.571-3.048,11.238c-0.762,2.476-1.333,4.571-1.714,5.714s-0.571,2.285-0.762,3.048c0,0.762,0,1.904,0,3.237
						c0.19,2.286,1.143,3.81,2.856,4.952c1.715,1.144,3.81,1.715,6.096,2.096c2.285,0.381,4.19,0.381,5.904,0.381h1.904
						c0.19,0,0.19,0,0.381,0s0.19,0,0.381,0c-1.333-2.667-2.285-5.523-2.856-8.571s-0.952-6.095-0.952-9.333
						c-0.19-3.238,0-6.285,0.19-9.333c0.381-3.048,0.571-5.904,0.952-8.381c1.333,4.381,2.477,9.333,4,14.666
						c1.523,5.524,3.047,11.238,4.762,17.523c0.19,0.571,0.952,0.952,2.285,1.333c1.334,0.381,2.667,0.572,4,0.572
						c0.381,0,0.762-0.191,1.143-0.191s0.572-0.19,0.762-0.381c0.572-4.952,1.334-9.714,2.286-14.476s1.904-8.762,3.048-12.38
						c0.381,6.856,1.143,13.333,2.095,19.237s1.333,21.332,11.429,22.476c4.57,0.571,7.618-0.19,11.237-3.048
						c1.904-1.523,2.666-2.857,4-4.571c1.333-1.714,2.856-3.238,4.381-4.762c1.714-1.523,3.428-2.667,5.714-3.619
						c1.714-0.762,3.619-1.143,5.904-1.333c2.286-0.19,4.952,0,7.81,0.762c0.952-1.714,1.333-3.429,1.523-4.952
						c0-1.523-0.19-2.857-0.571-4C488.981,403.722,487.838,402.579,486.314,402.198z"/>
					<path fill="#FFFFFF" d="M628.594,413.055c-3.048-4.381-7.618-13.523-9.714-20.762c1.143,0.19,2.477,0.381,3.619,0.763
						c2.476,0.762,5.143,1.904,7.809,3.618c2.096-1.904,3.619-3.81,4.571-5.714c1.144-1.904,1.524-3.81,1.524-5.523
						c0-2.096-0.953-4-2.857-5.333s-4.952-1.905-8.952-1.905c-2.095,0-4.19,0.381-6.095,0.953c-0.952,0.19-1.905,0.571-2.857,0.952
						c-0.762-2.667-1.523-5.523-2.095-8.571l-2.096-9.333l-1.523-6.476c-0.381-1.143-1.143-2.096-2.476-2.667
						c-1.334-0.571-2.667-0.952-4.19-1.143c-1.524-0.19-2.667-0.19-3.429-0.19c-1.333,0-3.048,1.333-4.952,4
						c-1.905,2.476-3.81,5.904-5.714,10.095c-2.096,4.19-3.81,8.762-5.523,13.523c-1.715,4.762-5.715,15.237-5.524,25.903
						c0.19,2.096,0.763,3.619,2.286,4.952c1.333,1.333,3.619,2.096,6.666,2.286c0.19-1.715,0.763-4,1.334-6.667
						c0.571-2.666,1.333-5.523,2.285-8.762c2.477-1.333,4.952-2.285,7.429-3.237c2.666-0.952,5.333-1.524,8.189-1.905
						c2.477,11.048,7.429,22.666,10.667,28.38c3.428,5.715,5.714,8.19,11.237,8.381c5.523,0.381,7.81-2.476,11.81-7.81
						C635.451,420.102,631.642,417.436,628.594,413.055z M599.262,385.817c-1.904,0.952-3.81,1.904-5.904,2.857
						c1.333-4,2.666-8,4-12c1.523-4,2.856-7.81,4.38-11.428h0.382c0.762,6.476,1.714,12.38,2.666,17.904
						C602.882,383.913,601.167,384.865,599.262,385.817z"/>
					<path fill="#FFFFFF" d="M605.548,414.007c-0.19-0.762-0.381-1.333-0.571-2.095c-2.666,0.952-4.381,1.714-7.237,2.095
						c-4.762,0.762-7.619,0-12.381-0.952c-4-0.762-6.476-2.096-9.714-3.238c1.143-3.81,1.904-12.762,2.285-17.142
						c0.382-4.381,0.572-8.762,0.572-13.143c-0.19-4.952-0.381-9.714-0.953-14.095c-0.952-4.19-2.666-5.904-3.428-6.477
						c-0.762-0.571-1.715-0.762-2.667-0.762c-1.333,0-2.856,0.381-4.19,0.952c-1.523,0.572-2.666,1.334-3.81,2.096
						c-1.143,0.762-1.714,1.333-1.904,1.714c0.571,0.571,2.857,5.143,3.429,9.714s0.952,9.523,1.143,14.666
						c-1.143,1.524-2.667,2.857-4.571,4s-3.81,1.905-5.714,1.905c-1.143,0-2.096-0.19-2.857-0.953
						c-0.762-0.762-1.143-1.904-1.333-3.618c0-3.048,0.19-6.286,0.952-10.095c0.571-3.619,1.143-7.429,1.714-11.238
						s0.953-7.428,0.953-10.856c0-3.81-0.953-6.857-2.477-9.143c-1.714-2.285-4.381-3.429-8.381-3.429
						c-2.476,0.19-4.952,0.762-7.237,1.905c-2.286,1.143-4.762,2.476-7.238,3.809c-2.476,1.524-4.952,2.667-7.809,3.81
						c-2.667,1.144-5.714,1.715-8.952,1.905c-2.477,0-5.143-0.381-8.19-1.144c-2.857-0.952-6.095-2.285-9.333-4.571
						c-2.095,1.715-3.237,3.619-4.19,5.334c-0.952,1.904-1.333,3.618-1.333,5.333c0,2.285,0.952,4,2.667,5.333
						c1.714,1.333,4.38,2.095,8.189,1.904c3.429-0.19,6.667-0.952,9.904-2.476c3.238-1.524,6.477-3.238,9.904-5.143
						c3.429-1.905,7.048-3.619,10.857-5.143c0.19,0,0.571,0,0.762-0.19c0.19,0,0.571,0,0.762,0c2.286,0,4,0.762,5.143,2.285
						s2.096,3.429,2.667,5.904c0.571,2.477,0.762,5.143,0.762,8.19c0,4,0,8-0.381,11.809c-0.19,4-0.381,7.429-0.381,10.477
						c0,2.095,0.952,3.618,2.476,4.762c1.523,0.952,3.619,1.523,6.095,1.523c2.857,0,5.715-0.762,8.762-2.285
						c3.048-1.334,5.714-3.429,8-6.286c0,2.096-0.19,14.476-0.381,16.19c-0.762,0-1.714-0.19-2.477-0.19c-0.762,0-1.714,0-2.666,0
						c-2.667,0-5.333,0.571-8.19,1.714c-2.666,1.143-5.143,2.666-6.856,4.571c-1.905,2.095-2.857,4.571-2.857,7.618
						c0.19,2.667,1.143,4.571,3.048,5.905c1.904,1.333,4.19,1.904,7.237,1.904c4.952-0.19,9.143-1.333,12.381-3.619
						c3.238-2.285,5.904-5.333,7.81-9.143c3.237,1.334,13.142,10.286,22.855,10.096c3.238,0,5.905-1.144,7.429-3.238
						c1.523-1.905,2.285-4.19,2.095-6.667C605.738,415.34,605.738,414.769,605.548,414.007z M561.93,420.482
						c-1.143,1.715-2.666,2.667-4.571,2.667c-0.952,0-1.904-0.571-2.666-1.523c-0.763-0.953-1.144-2.096-1.144-3.429
						s0.381-2.477,1.524-3.429c1.143-0.952,2.856-1.523,5.523-1.714c0.762,0,1.523,0,2.095,0c0.762,0,1.334,0.19,2.096,0.381
						C564.217,416.292,563.263,418.769,561.93,420.482z"/>
					<path fill="#FFFFFF" d="M538.122,381.437c0.571-6.856,0.762-14.476,0.762-17.333c0-1.523-0.381-2.476-1.143-3.047
						c-0.571-0.571-1.714-0.762-2.857-0.762c-1.143,0-2.285,0.19-3.618,0.571c-1.144,0.381-2.286,0.762-3.429,1.333
						s-2.477,1.143-3.619,1.904c0.571,1.905,0.952,7.619,1.333,12.762c0.382,3.048,0.572,5.143,0.572,7.81c0,4-0.19,8-0.381,12.189
						c-0.191,4-0.572,7.81-0.953,11.429c-1.143-1.715-2.476-4.381-4-7.81c-1.714-3.429-3.237-7.618-4.762-12.57
						c-1.523-4.952-2.666-10.477-3.618-16.571c-0.19-0.952-0.571-1.714-1.524-2.095c-0.762-0.381-1.904-0.572-3.237-0.572
						c-1.524,0-3.048,0.191-4.571,0.763c-1.524,0.571-2.857,1.143-4.19,2.095c-2.286,1.143-0.19,7.429-0.19,7.429
						c2.095,7.237,3.81,14.095,1.904,22.665c-0.381,2.477-0.762,4.19-1.714,6.096c-0.952,2.095-2.286,5.904-4,7.809
						c1.333,1.905,4.571,4.762,8.19,4.571c1.904,0,3.047-0.381,4.762-1.523c4-2.667,3.047-10.285,2.856-12
						c-0.19-1.143-1.904-11.809-1.714-13.522c2.667,4.952,5.333,10.095,8,15.999c2.666,5.714,4.762,11.999,6.666,18.476
						c0,0.381,0.571,0.762,1.714,1.143c1.334,0.381,3.048,0.571,5.524,0.571c1.143,0,2.285,0,3.618-0.19
						c1.334-0.19,2.667-0.381,4.19-0.762c-0.952-1.714-1.714-4-2.285-6.476c-0.381-2.667-0.762-5.334-0.762-8.571
						c-0.191-5.143,0.19-10.666,0.762-16.19C536.979,391.341,537.551,387.531,538.122,381.437z"/>
				</g>
			</g>
			<g>
				<path fill="#FFFFFF" d="M655.641,417.816c1.904,0,3.428-0.952,4.762-2.286c1.333-1.523,2.285-3.237,2.856-5.333
					c0.571-2.095,0.953-4.381,0.953-6.476c0-2.286-0.572-4.381-1.334-5.904c-0.952-1.715-2.285-2.477-4.19-2.477
					c-0.952,0-1.904,0.19-2.856,0.762c-0.953,0.571-2.096,1.905-3.238,3.81c0-1.714-0.19-3.048-0.571-3.81s-0.952-1.143-1.905-1.143
					c-0.571,0-1.333,0.19-2.285,0.381s-1.904,0.571-3.238,1.143c0.571,0.762,0.953,1.524,1.144,2.667s0.381,2.285,0.381,3.619
					c0,1.143,0,2.285,0,3.618c0,1.334,0,2.477,0,3.81c0,2.477,0,4.571-0.19,6.285c-0.19,1.715-0.381,3.238-0.572,4.571
					c-0.19,1.334-0.19,2.857-0.19,4.571c0,0.763,0.19,1.334,0.763,1.715c0.381,0.381,0.952,0.381,1.714,0.381
					s1.714-0.19,2.667-0.571c0.952-0.381,1.714-0.762,2.285-0.953c0.571-0.381,0.952-0.571,0.952-0.571
					c-0.571-1.143-0.762-2.285-0.952-3.428c-0.19-1.334-0.381-2.667-0.381-4c0-0.762,0-1.334,0-2.096
					c0.381,0.381,0.952,0.762,1.523,0.952C654.117,417.816,654.88,417.816,655.641,417.816z M652.022,412.483
					c0-2.857,0.19-5.143,0.571-6.857c0.381-1.714,0.952-3.047,1.523-3.81c0.571-0.762,1.144-1.143,1.715-1.143
					c0.19,0,0.571,0.19,0.571,0.762c0.19,0.571,0.19,1.144,0.19,1.905c0,1.333-0.19,2.666-0.381,4.19
					c-0.381,1.523-0.952,2.856-1.524,3.999c-0.762,1.144-1.714,1.905-2.856,2.096L652.022,412.483z"/>
				<path fill="#FFFFFF" d="M676.593,409.055c1.905,0,3.429-0.571,4.571-1.333s2.096-1.715,2.857-2.857
					c0.571-1.143,0.952-2.476,0.952-3.619c0-1.904-0.762-3.618-2.096-4.952c-1.333-1.333-3.428-2.095-6.095-2.095
					c-1.904,0-3.619,0.762-5.333,2.095c-1.523,1.334-2.857,2.857-3.81,4.952c-0.952,1.905-1.523,4.19-1.523,6.286
					c0,2.666,0.571,4.952,1.714,6.476c0.952,1.523,2.286,2.667,3.81,3.429c1.523,0.571,3.048,0.952,4.762,0.952
					c2.096,0,4-0.571,5.714-1.523c1.524-0.953,2.477-1.905,2.477-3.048c0-0.762-0.381-1.333-0.952-1.904
					c-0.572-0.572-1.524-0.763-2.667-0.953c-0.381,1.144-0.952,1.905-1.714,2.667c-0.762,0.571-1.524,0.952-2.286,0.952
					c-1.333,0-2.285-0.571-3.048-1.714c-0.571-1.144-0.952-2.477-0.952-4c0.571,0.19,1.334,0.19,1.905,0.381
					C675.45,409.055,676.021,409.055,676.593,409.055z M677.545,399.531c0.19,0,0.571,0.19,0.571,0.381
					c0.19,0.381,0.19,0.762,0.19,1.143c0,0.952-0.381,1.905-1.143,3.048c-0.762,0.952-2.285,1.714-4.19,2.095
					c0.19-1.714,0.762-3.237,1.524-4.571C675.26,400.293,676.402,399.531,677.545,399.531z"/>
			</g>
			<path fill="#FFFFFF" d="M637.547,413.816c1.523,0,2.666-0.571,3.429-1.523c0.762-0.953,1.143-1.905,1.143-3.238
				c0-1.143-0.381-2.096-1.143-2.857c-0.763-0.762-1.905-1.143-3.238-1.143s-2.477,0.571-3.238,1.714
				c-0.762,0.953-1.143,2.096-1.143,3.429c0,0.952,0.381,1.905,1.143,2.667C634.88,413.436,636.023,413.816,637.547,413.816z"/>
		</g>
	</g>
</g>
</svg>
