<?xml version="1.0" encoding="utf-8"?>
<!-- Generated by IcoMoon.io -->
<!DOCTYPE svg PUBLIC "-//W3C//DTD SVG 1.1//EN" "http://www.w3.org/Graphics/SVG/1.1/DTD/svg11.dtd">
<svg version="1.1" xmlns="http://www.w3.org/2000/svg" xmlns:xlink="http://www.w3.org/1999/xlink" width="290" height="90" viewBox="0 0 290 90">
<g id="icomoon-ignore">
</g>
<path d="M208.819 71.962c-0.191-0.766-0.383-1.34-0.574-2.107-2.681 0.957-4.406 1.724-7.277 2.107-4.789 0.766-7.662 0-12.45-0.957-4.022-0.766-6.512-2.108-9.768-3.256 1.149-3.831 1.915-12.833 2.298-17.238 0.384-4.406 0.575-8.811 0.575-13.216-0.191-4.98-0.383-9.768-0.958-14.174-0.957-4.213-2.681-5.937-3.447-6.513-0.766-0.574-1.725-0.766-2.682-0.766-1.34 0-2.872 0.383-4.213 0.957-1.531 0.575-2.681 1.341-3.831 2.108-1.149 0.766-1.724 1.34-1.915 1.724 0.574 0.574 2.873 5.172 3.448 9.768s0.957 9.576 1.149 14.748c-1.149 1.533-2.682 2.873-4.597 4.022s-3.831 1.916-5.746 1.916c-1.149 0-2.108-0.191-2.873-0.958-0.766-0.766-1.149-1.915-1.34-3.638 0-3.065 0.191-6.321 0.957-10.151 0.574-3.639 1.149-7.471 1.724-11.301s0.958-7.469 0.958-10.917c0-3.831-0.958-6.895-2.491-9.194-1.724-2.298-4.406-3.448-8.428-3.448-2.49 0.191-4.98 0.766-7.277 1.916-2.299 1.149-4.789 2.49-7.278 3.83-2.49 1.533-4.98 2.682-7.853 3.831-2.682 1.15-5.746 1.725-9.002 1.916-2.491 0-5.172-0.383-8.236-1.15-2.873-0.957-6.129-2.298-9.385-4.597-2.107 1.725-3.255 3.639-4.213 5.364-0.957 1.915-1.34 3.638-1.34 5.363 0 2.298 0.957 4.022 2.682 5.363 1.724 1.34 4.404 2.107 8.235 1.915 3.448-0.191 6.704-0.957 9.959-2.49s6.513-3.256 9.959-5.172c3.448-1.916 7.087-3.639 10.918-5.172 0.191 0 0.574 0 0.766-0.191 0.191 0 0.574 0 0.766 0 2.299 0 4.022 0.766 5.172 2.298s2.108 3.448 2.682 5.937c0.574 2.491 0.766 5.172 0.766 8.236 0 4.022 0 8.045-0.383 11.875-0.191 4.022-0.383 7.471-0.383 10.536 0 2.107 0.957 3.638 2.49 4.789 1.531 0.957 3.639 1.531 6.129 1.531 2.873 0 5.747-0.766 8.811-2.298 3.065-1.341 5.746-3.448 8.045-6.321 0 2.108-0.191 14.557-0.383 16.28-0.766 0-1.724-0.191-2.491-0.191-0.766 0-1.724 0-2.681 0-2.682 0-5.363 0.574-8.236 1.724-2.681 1.149-5.172 2.681-6.894 4.597-1.916 2.107-2.873 4.597-2.873 7.661 0.191 2.682 1.149 4.597 3.065 5.938 1.915 1.34 4.213 1.915 7.277 1.915 4.98-0.191 9.194-1.34 12.45-3.639 3.256-2.298 5.937-5.363 7.854-9.194 3.255 1.341 13.215 10.343 22.983 10.152 3.256 0 5.938-1.15 7.471-3.256 1.531-1.916 2.298-4.213 2.107-6.704-0.004-0.763-0.004-1.337-0.195-2.104zM164.957 78.473c-1.149 1.725-2.681 2.682-4.597 2.682-0.957 0-1.915-0.574-2.681-1.531-0.767-0.958-1.15-2.108-1.15-3.448s0.383-2.491 1.533-3.448c1.149-0.957 2.872-1.531 5.554-1.724 0.766 0 1.531 0 2.107 0 0.766 0 1.341 0.191 2.108 0.383-0.573 2.873-1.533 5.364-2.873 7.086z" fill="rgb(0,200,255)"></path>
<path d="M97.347 53.575c0-0.191-0.191-0.383 0.191-0.191 0.957-0.574 1.724-1.531 2.49-2.873 0.767-1.34 1.15-2.872 1.15-4.404s-0.383-2.682-1.533-3.639c-1.149-0.957-2.872-1.533-5.363-1.725-0.766-2.681-1.531-5.554-2.107-8.618l-2.108-9.385-1.531-6.513c-0.383-1.149-1.149-2.107-2.49-2.681s-2.682-0.957-4.213-1.15c-1.533-0.191-2.682-0.191-3.448-0.191-1.34 0-3.065 1.341-4.98 4.022-1.915 2.491-3.831 5.938-5.746 10.151-2.108 4.213-3.831 8.811-5.554 13.599-1.533 4.789-3.065 9.385-4.022 13.982-0.766 0-1.34 0.191-1.916 0.191-0.574 0-1.34 0-1.915 0-2.298 0 0.383 10.918 2.298 9.959 0.575-0.191 0 1.15 0 1.725 0.192 1.915 0.767 3.638 2.299 4.98 1.531 1.34 2.682 2.107 5.746 2.298 0.191-1.724 3.639-12.257 4.597-15.514 2.491-1.34 4.98-2.299 7.471-3.256 2.298-0.957 4.98-1.531 7.661-1.915 2.107 9.194 14.938 6.32 13.023 1.149zM77.427 46.105c-1.916 0.957-3.831 1.915-5.937 2.872 1.34-4.022 2.681-8.045 4.021-12.066 1.341-4.022 2.873-7.854 4.406-11.493h0.383c0.767 6.513 1.725 12.45 2.682 18.004-1.724 0.767-3.639 1.725-5.555 2.683z" fill="rgb(0,200,255)"></path>
<path d="M88.919 60.087c-1.531-0.575-3.639-0.191-6.129 0.766-2.299 1.149-4.406 2.49-6.32 4.406-1.916 1.915-3.639 3.83-5.555 6.129-1.915 2.298-3.83 4.406-6.129 6.512-0.191 0.191-0.383 0.383-0.574 0.383s-0.383 0.191-0.574 0.191c-1.531 0.574-3.065 0.574-4.213-0.191-1.34-0.766-2.491-1.915-3.448-3.447-0.383-0.383-0.574-0.767-0.766-1.15 0-0.191-0.191-0.383-0.191-0.574-1.724-3.255-2.873-7.277-3.448-12.449-0.766-5.172-1.149-11.11-1.149-17.813-0.191-2.491-0.191-5.554-0.191-8.811 0-3.448 0-7.662-0.191-12.833-0.191-0.574-0.766-1.34-1.915-1.915-0.958-0.574-2.299-1.149-3.639-1.531-1.533-0.383-2.873-0.574-4.213-0.574-1.149 0-1.724 0-2.682 0.574-2.107 1.149-0.957 5.363-0.957 6.129 0.191 5.172-1.724 9.194-2.681 12.258s-1.916 5.554-2.682 7.277c-0.574 0.957-0.957 1.915-1.531 2.682-0.574 0.766-0.957 1.531-1.533 1.915 0-0.383-0.19-0.766-0.383-1.34-0.191-0.383-0.383-1.15-0.574-1.916-0.191-1.34-0.766-3.255-1.34-5.746-0.766-2.49-1.34-5.746-2.298-9.768-0.575-2.873-1.15-5.363-1.533-7.277-0.383-1.916-0.957-3.448-1.915-4.406-0.957-1.15-2.682-1.725-4.406-1.533-3.831 0.383-6.512 5.938-4.406 9.194-1.724 7.854-3.448 14.939-4.789 19.92s-2.299 8.619-3.065 11.301c-0.766 2.49-1.34 4.597-1.724 5.746s-0.574 2.298-0.766 3.065c0 0.766 0 1.915 0 3.255 0.191 2.299 1.149 3.831 2.872 4.98 1.725 1.15 3.831 1.725 6.13 2.108s4.213 0.383 5.937 0.383h1.915c0.191 0 0.191 0 0.383 0s0.191 0 0.383 0c-1.34-2.682-2.298-5.554-2.872-8.619s-0.957-6.129-0.957-9.385c-0.191-3.256 0-6.32 0.191-9.385 0.383-3.065 0.574-5.937 0.957-8.428 1.34 4.406 2.491 9.385 4.022 14.748 1.531 5.555 3.064 11.301 4.789 17.621 0.191 0.574 0.957 0.957 2.298 1.34 1.341 0.383 2.682 0.575 4.022 0.575 0.383 0 0.766-0.192 1.149-0.192s0.575-0.191 0.766-0.383c0.575-4.98 1.341-9.768 2.299-14.557s1.915-8.811 3.065-12.449c0.383 6.894 1.149 13.407 2.107 19.344s1.34 21.451 11.493 22.602c4.596 0.574 7.661-0.191 11.3-3.065 1.915-1.531 2.681-2.873 4.022-4.597s2.872-3.256 4.406-4.789c1.724-1.531 3.447-2.682 5.746-3.639 1.724-0.766 3.639-1.149 5.937-1.34s4.98 0 7.854 0.766c0.957-1.724 1.34-3.448 1.531-4.98 0-1.531-0.191-2.873-0.574-4.022-0.578-1.533-1.728-2.682-3.26-3.065z" fill="rgb(0,200,255)"></path>
<path d="M141.016 39.21c0.574-6.894 0.766-14.557 0.766-17.43 0-1.531-0.383-2.49-1.149-3.064-0.574-0.574-1.724-0.766-2.873-0.766s-2.298 0.191-3.638 0.574c-1.15 0.383-2.299 0.766-3.448 1.34s-2.491 1.149-3.639 1.915c0.574 1.916 0.957 7.662 1.34 12.833 0.384 3.065 0.575 5.172 0.575 7.854 0 4.022-0.191 8.045-0.383 12.257-0.192 4.022-0.575 7.854-0.958 11.493-1.149-1.725-2.49-4.406-4.022-7.854-1.724-3.448-3.255-7.661-4.789-12.64-1.531-4.98-2.681-10.536-3.638-16.664-0.191-0.957-0.574-1.724-1.533-2.107-0.766-0.383-1.915-0.575-3.255-0.575-1.533 0-3.065 0.192-4.597 0.767-1.533 0.574-2.873 1.149-4.213 2.107-2.299 1.149-0.191 7.471-0.191 7.471 2.107 7.277 3.831 14.174 1.915 22.792-0.383 2.491-0.766 4.213-1.724 6.13-0.957 2.107-2.299 5.937-4.022 7.853 1.34 1.916 4.597 4.789 8.236 4.597 1.915 0 3.064-0.383 4.789-1.531 4.022-2.682 3.064-10.342 2.872-12.067-0.191-1.149-1.915-11.875-1.724-13.598 2.682 4.98 5.363 10.151 8.045 16.088 2.681 5.746 4.789 12.066 6.703 18.579 0 0.383 0.574 0.766 1.724 1.149 1.341 0.383 3.065 0.574 5.555 0.574 1.149 0 2.298 0 3.638-0.191s2.682-0.383 4.213-0.766c-0.957-1.724-1.724-4.022-2.298-6.512-0.383-2.682-0.766-5.364-0.766-8.619-0.192-5.172 0.191-10.726 0.766-16.28 0.574-5.749 1.149-9.58 1.724-15.708z" fill="rgb(0,200,255)"></path>
<path d="M231.994 71.004c-3.065-4.406-7.661-13.599-9.768-20.878 1.149 0.191 2.491 0.383 3.639 0.767 2.49 0.766 5.172 1.915 7.853 3.638 2.108-1.915 3.639-3.831 4.597-5.746 1.15-1.915 1.533-3.831 1.533-5.554 0-2.108-0.958-4.022-2.873-5.363s-4.98-1.916-9.002-1.916c-2.107 0-4.213 0.383-6.129 0.958-0.957 0.191-1.916 0.574-2.873 0.957-0.766-2.682-1.531-5.554-2.107-8.619l-2.108-9.385-1.531-6.512c-0.383-1.149-1.149-2.108-2.49-2.682s-2.682-0.957-4.213-1.149c-1.533-0.191-2.682-0.191-3.448-0.191-1.34 0-3.065 1.34-4.98 4.022-1.916 2.49-3.831 5.937-5.746 10.151-2.108 4.213-3.831 8.811-5.554 13.599-1.725 4.789-5.747 15.322-5.555 26.048 0.191 2.108 0.767 3.639 2.299 4.98 1.34 1.34 3.639 2.108 6.703 2.299 0.191-1.725 0.767-4.022 1.341-6.704s1.34-5.554 2.298-8.811c2.491-1.34 4.98-2.298 7.471-3.255 2.681-0.957 5.363-1.533 8.235-1.916 2.491 11.11 7.471 22.793 10.727 28.539 3.447 5.747 5.746 8.236 11.3 8.428 5.554 0.383 7.854-2.49 11.876-7.854-4.598-0.765-8.428-3.446-11.493-7.852zM202.498 43.614c-1.915 0.957-3.831 1.915-5.937 2.873 1.34-4.022 2.681-8.045 4.022-12.067 1.531-4.022 2.872-7.854 4.404-11.492h0.384c0.766 6.512 1.724 12.449 2.681 18.004-1.915 0.767-3.639 1.725-5.555 2.682z" fill="rgb(0,200,255)"></path>
<path d="M259.192 75.792c1.915 0 3.447-0.957 4.789-2.299 1.34-1.531 2.298-3.255 2.872-5.363s0.958-4.406 0.958-6.512c0-2.299-0.575-4.406-1.341-5.937-0.957-1.725-2.298-2.491-4.213-2.491-0.957 0-1.915 0.191-2.872 0.766-0.958 0.574-2.108 1.916-3.256 3.831 0-1.724-0.191-3.065-0.574-3.831s-0.957-1.149-1.916-1.149c-0.574 0-1.34 0.191-2.298 0.383s-1.915 0.574-3.256 1.149c0.574 0.766 0.958 1.533 1.15 2.682s0.383 2.298 0.383 3.639c0 1.149 0 2.298 0 3.638s0 2.491 0 3.831 0 4.597-0.191 6.32c-0.191 1.725-0.383 3.256-0.575 4.597-0.191 1.341-0.191 2.873-0.191 4.597 0 0.767 0.191 1.341 0.767 1.725 0.383 0.383 0.957 0.383 1.724 0.383s1.724-0.191 2.682-0.574c0.957-0.383 1.724-0.766 2.298-0.958 0.574-0.383 0.957-0.574 0.957-0.574-0.574-1.149-0.766-2.298-0.957-3.447-0.191-1.341-0.383-2.682-0.383-4.022 0-0.766 0-1.341 0-2.108 0.383 0.383 0.957 0.766 1.531 0.957 0.38 0.767 1.147 0.767 1.913 0.767zM255.553 70.429c0-2.873 0.191-5.172 0.574-6.895s0.957-3.064 1.531-3.831c0.574-0.766 1.15-1.149 1.725-1.149 0.191 0 0.574 0.191 0.574 0.766 0.191 0.574 0.191 1.15 0.191 1.916 0 1.34-0.191 2.681-0.383 4.213-0.383 1.531-0.957 2.872-1.533 4.021-0.766 1.15-1.724 1.916-2.872 2.108l0.192-1.148z" fill="rgb(0,200,255)"></path>
<path d="M280.261 66.982c1.916 0 3.448-0.574 4.597-1.34s2.108-1.725 2.873-2.873c0.574-1.149 0.957-2.49 0.957-3.639 0-1.915-0.766-3.638-2.108-4.98-1.34-1.34-3.447-2.107-6.129-2.107-1.915 0-3.639 0.766-5.363 2.107-1.531 1.341-2.873 2.873-3.831 4.98-0.957 1.916-1.531 4.213-1.531 6.321 0 2.681 0.574 4.98 1.724 6.512 0.957 1.531 2.299 2.682 3.831 3.448 1.531 0.574 3.065 0.957 4.789 0.957 2.108 0 4.022-0.574 5.746-1.531 1.533-0.958 2.491-1.916 2.491-3.065 0-0.766-0.383-1.34-0.957-1.915s-1.533-0.767-2.682-0.958c-0.383 1.15-0.957 1.916-1.724 2.682-0.766 0.574-1.533 0.957-2.299 0.957-1.34 0-2.298-0.574-3.065-1.724-0.574-1.15-0.957-2.491-0.957-4.022 0.574 0.191 1.341 0.191 1.916 0.383 0.574-0.193 1.148-0.193 1.724-0.193zM281.218 57.405c0.191 0 0.574 0.191 0.574 0.383 0.191 0.383 0.191 0.766 0.191 1.149 0 0.957-0.383 1.916-1.149 3.065-0.766 0.957-2.298 1.724-4.213 2.107 0.191-1.724 0.766-3.255 1.533-4.597s1.916-2.108 3.065-2.108z" fill="rgb(0,200,255)"></path>
<path d="M240.997 71.77c1.531 0 2.681-0.574 3.448-1.531 0.766-0.958 1.149-1.916 1.149-3.256 0-1.149-0.383-2.108-1.149-2.873-0.767-0.766-1.916-1.149-3.256-1.149s-2.491 0.574-3.256 1.724c-0.766 0.958-1.149 2.108-1.149 3.448 0 0.957 0.383 1.916 1.149 2.682 0.382 0.574 1.531 0.956 3.064 0.956z" fill="rgb(0,200,255)"></path>
</svg>
