<?xml version="1.0" encoding="utf-8"?>
<!-- Generator: Adobe Illustrator 16.0.4, SVG Export Plug-In . SVG Version: 6.00 Build 0)  -->
<!DOCTYPE svg PUBLIC "-//W3C//DTD SVG 1.1//EN" "http://www.w3.org/Graphics/SVG/1.1/DTD/svg11.dtd">
<svg version="1.1" id="Capa_1" xmlns="http://www.w3.org/2000/svg" xmlns:xlink="http://www.w3.org/1999/xlink" x="0px" y="0px"
	 width="100px" height="100px" viewBox="0 0 100 100" enable-background="new 0 0 100 100" xml:space="preserve">
<path d="M48.794,25.864c0.173,0.247,0.367,0.513,0.576,0.793c-0.441,2.159-2.351,3.784-4.641,3.784
	c-0.814,0-1.569-0.225-2.239-0.587c-0.587-2.22-0.853-5.205,0.437-6.602C44.514,21.534,46.13,22.058,48.794,25.864z M88.048,85.201
	c-2.799-5.282-2.204-3.871-2.709-6.48c-0.459-2.354-0.228-5.076-0.354-7.894c-0.192-4.259-0.59-8.735-0.59-12.489
	c0-3.298-1.375-4.347-2.121-6.48c-1.082-3.103-1.949-5.941-3.416-7.421c-1.78-1.796-3.729-0.656-3.729-0.656
	c-1.282-3.324-0.799-3.055-2.149-4.698c-1.301-1.58-3.446-0.333-3.446-0.333s-0.542-1.658-1.233-2.607
	c-0.812-1.116-1.361-1.49-1.949-2.182c-1.123-1.326-4.195-0.918-5.104-0.478c-0.656,0.32-1.537,1.344-2.459,2.017
	c-1.774,1.295-2.306,2.932-2.306,2.932s-1.695-3.726-2.705-5.702c-0.641-1.253-2.334-3.364-3.724-5.173l-5.494,6.421l-0.671-0.784
	c0.312,0.463,0.682,0.871,1.14,1.133c0,0-0.188,1.242,0.249,2.459c0.437,1.216,0.825,3.209,1.271,4.284
	c0.626,1.507,0.765,1.396,0.957,2.03c0.212,0.692-0.301,1.043,0.208,2.978c0.578,2.195,0.243,5.336,0.146,7.471
	c-0.081,1.812-0.215,3.558-0.425,4.993c-0.286,1.959-0.908,3.335-1.239,4.215c-0.249,0.657-0.206,1.21-0.206,1.21
	s-0.457-0.008-0.999,0.171c-0.543,0.178-0.886,0.635-0.886,0.635l-0.904-0.611c0,0,0.17-0.328,0-0.912
	c-0.183-0.639-0.049-0.335-0.505-1.536c-0.185-0.491-0.623-1.76-0.768-2.222c-0.382-1.221-1.158-1.621-1.158-1.621
	s0.049-2.389-0.387-4.286c-0.424-1.853-1.358-3.022-3.15-4.718c-1.478-1.399-2.682-1.763-3.959-1.57
	c-1.59,0.24-2.356,2.089-2.12,4.036c0.136,1.125,0.397,2.071,0.594,2.864c0.857,3.433-0.442,5.623-0.402,6.959
	c0.051,1.728,0.717,2.188,1.195,4.015c0.339,1.294,1.147,2.733,1.537,4.228c0.578,2.207,0.932,4.315,1.19,4.848
	c1.361,2.818,6.764,6.357,11.783,10.957c2.825,2.592,6.171,2.604,8.481,4.947c1.416,1.436,2.193,3.836,3.652,6.01
	c6.047,9.007,23.766,0.208,28.42-6.469C88.709,88.104,88.482,86.023,88.048,85.201z M42.49,29.855
	c-1.48-0.801-2.498-2.349-2.498-4.15c-0.001-2.617,2.12-4.738,4.737-4.738c2.616,0,4.737,2.121,4.737,4.738
	c0,0.326-0.033,0.645-0.096,0.953c0.214,0.287,0.443,0.588,0.682,0.898l4.931-5.764h-5.396l-5.03-21.596l-4.501,21.597H34.13
	l9.756,11.4c-0.411-0.61-0.717-1.32-0.959-1.946C42.772,30.848,42.625,30.365,42.49,29.855z"/>
</svg>
