<?xml version="1.0" encoding="utf-8"?>
<!-- Generator: Adobe Illustrator 17.0.0, SVG Export Plug-In . SVG Version: 6.00 Build 0)  -->
<!DOCTYPE svg PUBLIC "-//W3C//DTD SVG 1.1//EN" "http://www.w3.org/Graphics/SVG/1.1/DTD/svg11.dtd">
<svg version="1.1" id="Capa_1" xmlns="http://www.w3.org/2000/svg" xmlns:xlink="http://www.w3.org/1999/xlink" x="0px" y="0px"
	 width="200px" height="200px" viewBox="0 0 200 200" enable-background="new 0 0 200 200" xml:space="preserve">
<g>
	<path d="M183.653,7.668c0.242-0.272,0.358-0.638,0.226-1.062c-1.63-5.214-16.308-3.417-20.134-3.39
		c-3.476,0.025-18.423-1.322-22.546,1.838c-0.296,0.007-0.603,0.078-0.921,0.321c-11.655,8.904-23.872,16.987-36.041,25.138
		c-0.005-0.011-0.011-0.022-0.016-0.034c-0.26-0.552-1.182-0.16-0.984,0.415c0.027,0.079,0.061,0.154,0.088,0.232
		c-2.42,1.622-4.843,3.241-7.254,4.878c-0.195-0.506-1.088-0.395-1.021,0.191c0.017,0.153,0.058,0.299,0.078,0.451
		c-6.843,4.661-13.627,9.41-20.222,14.434C57.081,64.66,35.983,73.201,18.751,87.306c-0.832,0.681-0.572,1.873,0,2.588
		c5.164,6.456,15.815,23.078,25.673,24.467c-6.97,5.142-12.989,12.583-18.034,19.368c-0.318-0.133-0.772,0.071-0.744,0.47
		c0.011,0.148,0.043,0.295,0.055,0.442c-3.769,4.964-11.252,14.307-8.552,20.762c-1.383,6.623,2.621,17.41,5.902,21.951
		c7.085,9.806,21.471,12.943,31.981,18.212c0.058,0.029,0.103,0.07,0.166,0.081c0.451,0.228,0.938,0.436,1.373,0.673
		c0.818,0.445,1.587,0.196,2.097-0.317c0.258,0.044,0.534,0.035,0.829-0.104c15.449-7.288,22.053-24.377,33.157-36.515
		c0.476,0.16,1.006-0.352,0.911-0.877c-0.004-0.021-0.011-0.041-0.015-0.062c0.359-0.375,0.707-0.763,1.077-1.127
		c12.144,11.139,27.488,17.063,41.56,25.409c0.987,0.586,2.391,0.055,2.668-1.085c7.646-31.509,16.3-62.739,25.095-93.943
		c7.271-25.793,7.471-53.773,20.221-77.867C184.637,8.952,184.271,8.136,183.653,7.668z M142.097,8.487
		c0.108-0.083,0.128-0.199,0.206-0.294c1.199,3.395,2.903,6.613,4.836,9.706c-1.644,0.185-3.267,0.529-4.875,0.972
		c-0.887-1.051-2.062-1.961-2.976-2.895c-1.007-1.028-1.954-2.118-2.859-3.241C138.326,11.322,140.245,9.913,142.097,8.487z
		 M135.323,13.564c0.723,1.046,1.485,2.063,2.308,3.048c0.751,0.9,1.578,1.988,2.494,2.926c-1.247,0.426-2.487,0.893-3.711,1.439
		c-0.533-0.59-1.108-1.151-1.562-1.711c-0.897-1.107-1.762-2.244-2.646-3.365C133.254,15.124,134.277,14.341,135.323,13.564z
		 M131.16,16.684c0.79,1.202,1.567,2.413,2.386,3.59c0.333,0.478,0.691,1.033,1.074,1.576c-0.634,0.313-1.274,0.604-1.902,0.943
		c-1.506-1.312-2.765-2.772-3.817-4.415C129.664,17.816,130.399,17.247,131.16,16.684z M127.786,19.198
		c0.823,1.746,1.903,3.498,3.263,4.525c-1.352,0.782-2.693,1.605-4.012,2.478c-0.387-0.405-0.792-0.797-1.144-1.202
		c-0.779-0.898-1.479-1.853-2.139-2.836C125.105,21.177,126.44,20.186,127.786,19.198z M122.821,22.845
		c0.515,0.86,1.056,1.705,1.623,2.534c0.367,0.535,0.76,1.162,1.202,1.745c-1.064,0.731-2.119,1.479-3.159,2.246
		c-0.716-0.772-1.503-1.395-2.142-2.274c-0.389-0.535-0.699-1.122-0.98-1.722C120.525,24.533,121.665,23.686,122.821,22.845z
		 M118.354,26.109c0.58,1.688,1.459,3.344,2.808,4.246c-0.893,0.674-1.783,1.352-2.657,2.038c-0.897-1.461-2.012-2.79-2.927-4.262
		C116.51,27.46,117.424,26.781,118.354,26.109z M114.427,28.966c0.682,1.646,1.608,3.235,2.723,4.5
		c-0.937,0.747-1.875,1.495-2.789,2.236c-0.067-0.067-0.115-0.153-0.208-0.191c-0.374-0.155-1.216-1.357-1.56-1.742
		c-0.628-0.704-1.179-1.463-1.711-2.235C112.074,30.683,113.239,29.818,114.427,28.966z M109.63,32.437
		c0.86,1.715,2.088,3.593,3.53,4.234c-1.209,0.984-2.407,1.962-3.57,2.899c-0.639-1.294-1.741-2.443-2.498-3.656
		c-0.236-0.379-0.44-0.78-0.662-1.169C107.506,33.982,108.557,33.202,109.63,32.437z M105.182,35.639
		c0.171,0.364,0.322,0.735,0.504,1.096c0.632,1.249,1.455,2.951,2.697,3.796c-0.355,0.282-0.714,0.572-1.065,0.847
		c-0.478,0.375-0.962,0.722-1.441,1.091c-0.004-0.272-0.022-0.548-0.051-0.828c-0.092-0.92-1.315-0.908-1.421,0
		c-0.021,0.186-0.07,0.348-0.1,0.523c-0.771-1.433-1.504-2.872-2.145-4.357C103.178,37.092,104.168,36.356,105.182,35.639z
		 M100.814,38.754c0.749,1.911,1.685,3.758,2.582,5.594c-1.043,0.786-2.081,1.596-3.127,2.369c0.155-0.359,0.048-0.843-0.406-1.005
		c-0.303-0.108-0.754-1.239-0.908-1.512c-0.475-0.838-0.825-1.748-1.167-2.645c-0.068-0.179-0.103-0.372-0.168-0.552
		C98.689,40.26,99.747,39.502,100.814,38.754z M96.272,41.942c0.208,0.701,0.377,1.41,0.635,2.099
		c0.464,1.241,1.182,3.057,2.765,3.081c0.038,0,0.053-0.028,0.088-0.032c-1.317,0.97-2.634,1.943-3.955,2.898
		c-0.493-0.781-1.175-1.491-1.681-2.22c-0.675-0.973-1.29-1.988-1.918-2.994C93.567,43.84,94.914,42.883,96.272,41.942z
		 M91.042,45.579c0.486,1.04,1.006,2.062,1.588,3.063c0.466,0.802,0.974,1.743,1.661,2.44c-1.023,0.735-2.043,1.488-3.068,2.216
		c-0.578-2.01-1.888-3.96-3.333-5.541C88.944,47.041,89.989,46.3,91.042,45.579z M87.022,48.35c0.543,0.857,1.051,1.738,1.498,2.627
		c0.546,1.087,0.857,2.238,1.231,3.368c-1.27,0.897-2.533,1.821-3.806,2.708c-0.15-0.241-0.307-0.474-0.47-0.712
		c-0.453-0.658-0.834-1.373-1.238-2.062c-0.562-0.959-1.159-1.894-1.791-2.805C83.977,50.451,85.495,49.385,87.022,48.35z
		 M81.691,51.986c0.91,1.662,1.686,3.396,2.521,5.096c0.126,0.257,0.313,0.547,0.524,0.82c-1.59,1.101-3.164,2.248-4.76,3.333
		c-0.544-0.808-0.973-1.872-1.276-2.49c-0.587-1.199-1.109-2.416-1.783-3.536C78.512,54.156,80.097,53.051,81.691,51.986z
		 M76.28,55.633c0.52,1.54,0.975,3.128,1.631,4.645c0.214,0.494,0.489,1.178,0.85,1.783c-0.853,0.577-1.701,1.166-2.556,1.739
		c-0.112-0.285-0.215-0.551-0.262-0.657c-0.416-0.937-0.788-1.889-1.237-2.812c-0.465-0.956-1.069-1.891-1.995-2.313
		C73.904,57.242,75.089,56.416,76.28,55.633z M72.175,58.373c1.855,0.809,1.707,4.378,2.614,6.376
		c-0.963,0.641-1.919,1.297-2.885,1.933c-1.426-1.783-2.51-3.777-3.454-5.846C69.693,60.039,70.932,59.179,72.175,58.373z
		 M67.436,61.486c0.429,1.198,0.904,2.378,1.45,3.53c0.428,0.901,0.918,1.905,1.699,2.535c-1.326,0.869-2.64,1.755-3.972,2.616
		c-0.133-0.283-0.458-1.055-0.55-1.24c-0.432-0.871-0.808-1.771-1.181-2.668c-0.341-0.818-0.721-1.624-1.092-2.433
		C65.005,63.06,66.221,62.262,67.436,61.486z M60.046,66.199c0.975-0.606,1.951-1.242,2.927-1.855
		c0.294,1.147,0.593,2.292,0.981,3.434c0.252,0.742,0.61,2.381,1.33,3.252c-1.004,0.645-1.994,1.309-3.003,1.95
		c-0.328-0.782-0.734-1.543-1.059-2.291c-0.597-1.376-1.17-2.772-1.709-4.181C59.678,66.41,59.907,66.285,60.046,66.199z
		 M58.493,67.1c0.378,1.226,0.789,2.443,1.211,3.651c0.336,0.961,0.638,2.137,1.119,3.163c-0.993,0.629-1.969,1.276-2.967,1.902
		c-0.004,0.002-0.007-0.001-0.01,0.001c-0.649,0.319-1.453-5.011-1.801-7.379C56.969,67.942,57.78,67.499,58.493,67.1z
		 M55.073,68.957c0.114,2.202,0.348,6.202,1.54,7.647c-0.747,0.466-1.477,0.948-2.227,1.412c-0.227-0.172-0.574-0.189-0.764,0.11
		c-0.015,0.023-0.009,0.029-0.021,0.05c-0.079-0.174-0.161-0.347-0.226-0.53c-0.306-0.859-0.51-1.758-0.735-2.64
		c-0.349-1.374-0.714-2.768-1.248-4.089C52.723,70.208,53.935,69.564,55.073,68.957z M50.58,71.35
		c0.709,2.259,0.876,4.694,1.529,6.966c0.101,0.351,0.266,0.617,0.442,0.846c-1.041,0.641-2.054,1.3-3.1,1.937
		c-0.336-1.078-0.549-2.263-0.756-3.273c-0.343-1.667-0.583-3.36-0.756-5.057C48.844,72.28,49.72,71.81,50.58,71.35z M46.9,73.335
		c0.12,1.618,0.316,3.233,0.575,4.828c0.17,1.052,0.272,2.543,0.762,3.686c-1.088,0.659-2.141,1.339-3.236,1.996
		c-0.426-1.017-0.577-2.389-0.737-3.228c-0.339-1.79-0.536-3.628-0.669-5.453C44.709,74.537,45.81,73.93,46.9,73.335z
		 M42.852,75.587c-0.018,1.971,0.081,3.931,0.348,5.892c0.12,0.884,0.277,2.07,0.734,3.006c-1.015,0.607-2.016,1.219-3.037,1.824
		c0.006-3.121-0.125-6.273-0.411-9.364C41.27,76.487,42.062,76.036,42.852,75.587z M29.364,96.688
		c-1.335-1.447-2.664-2.901-3.962-4.407c-1.829-2.123,0.528-5.189,4.723-8.498C29.511,88.005,29.412,92.364,29.364,96.688z
		 M30.501,97.933c0.602-4.9,0.852-9.891,1.173-14.778c0.012-0.18-0.065-0.316-0.161-0.432c0.832-0.611,1.702-1.226,2.628-1.844
		c-0.563,7.13,0.275,14.73,1.125,21.964C33.652,101.236,32.066,99.599,30.501,97.933z M35.813,79.782
		c1.074-0.686,2.19-1.37,3.324-2.048c0.009,3.052,0.462,6.138,0.731,9.186c-1.133,0.669-2.249,1.343-3.39,2.01
		C36.356,85.852,36.166,82.792,35.813,79.782z M36.57,91.438c21.155-8.112,39.995-21.057,57.754-34.955
		c16.791-13.14,32.93-29.048,53.669-35.554c-0.105,0.153-0.21,0.306-0.278,0.513l-0.468,1.43c-0.304,0.927,0.505,1.718,1.352,1.819
		c-0.811,0.125-1.766,0.503-2.338,3.541c-0.938,4.984-1.859,9.974-2.728,14.971c-0.413,2.375-0.899,4.745-1.371,7.116
		c-0.024,0.045-0.024,0.091-0.028,0.144c-2.34,11.719-5.294,23.382-8.268,34.919c-3.06,11.87-6.088,23.715-9.73,35.424
		c-1.469,4.722-3.218,9.311-5.138,13.842c-0.248-0.323-0.774,0.015-0.593,0.42c0.075,0.167,0.13,0.341,0.202,0.508
		c-0.949,2.204-1.925,4.399-2.955,6.579c-3.141,6.646-22.067-6.314-24.468-8.316c-0.208-0.173-0.428-0.265-0.65-0.317
		c-0.303-0.345-0.649-0.725-1.163-1.273c-0.637-0.68-1.908-0.719-2.539,0c-10.495,11.966-20.915,23.471-32.496,34.345
		c-2.969-2.672-7.83-4.526-11.089-6.628c-4.834-3.119-9.757-6.309-14.989-8.737c1.072-0.375,1.988-1.055,2.669-2.002
		c5.957-5.402,10.643-12.11,15.317-18.608c2.662-3.699,5.318-7.397,8.154-10.965c1.971-2.478,4.702-4.517,6.308-7.219
		c0.301-0.507,0.193-1.118-0.136-1.549c0.182-0.45,0.175-0.998-0.181-1.381c-2.383-2.553-5.825-4.292-8.672-6.303
		c-2.738-1.934-5.452-3.963-8.024-6.112c-2.049-1.711-4.453-4.757-7.122-5.562C36.572,91.498,36.571,91.468,36.57,91.438z
		 M50.755,118.046c-0.805,1.111-1.571,2.231-2.294,3.286c0.005-1.815-0.076-3.625-0.248-5.431c1.183-0.919,0.724-2.576-0.31-3.065
		c-0.001-0.008-0.001-0.017-0.003-0.025c-0.405-2.993-0.577-6.373-1.264-9.451c0.956,0.821,1.945,1.628,2.95,2.413
		c-0.331-0.157-0.797-0.062-0.872,0.356C48.043,109.892,49.754,114.34,50.755,118.046z M54.06,114.032
		c-0.872,0.905-1.71,1.885-2.497,2.918c-0.199-1.28-0.433-2.554-0.671-3.829c-0.432-2.314-0.469-4.711-0.986-6.991
		c-0.024-0.107-0.098-0.176-0.169-0.245c0.77,0.598,1.57,1.123,2.36,1.676c-0.012,0.088-0.051,0.165-0.014,0.268
		C52.868,109.953,53.655,111.887,54.06,114.032z M54.023,108.889c1.282,0.804,2.577,1.537,3.875,2.115
		c-0.998,0.516-1.934,1.244-2.835,2.062C54.905,111.628,54.572,110.213,54.023,108.889z M40.246,107.68
		c-1.178-1.052-2.258-2.2-3.392-3.294c-0.09-3.502-0.136-7.033-0.207-10.574c0.066,0.087,0.089,0.185,0.164,0.265
		c0.868,0.924,1.802,1.786,2.712,2.671c-0.306,0.09-0.565,0.309-0.532,0.698c0.204,2.369,0.855,4.701,1.17,7.061
		C40.3,105.55,40.269,106.618,40.246,107.68z M41.579,108.811c0.195-1.168,0.125-2.445,0.089-3.485
		c-0.083-2.431-0.437-5.054-1.002-7.453c0.383,0.365,0.746,0.751,1.131,1.114c0.868,0.817,1.798,1.674,2.754,2.539
		c-0.174,2.904,0.701,5.999,1.189,8.826c0.125,0.726,0.217,1.457,0.334,2.185C44.521,111.341,43.046,110.08,41.579,108.811z
		 M46.756,117.083c0.249,1.931,0.455,3.867,0.617,5.809c-0.182,0.258-0.37,0.531-0.547,0.772c-0.588,0.799-1.17,1.603-1.756,2.404
		c-0.228-0.869-0.506-1.726-0.671-2.612c-0.252-1.357-0.277-2.748-0.474-4.105C44.84,118.545,45.803,117.822,46.756,117.083z
		 M42.426,120.75c0.095,2.242,0.823,4.581,1.672,6.648c-1.308,1.792-2.618,3.582-3.926,5.373c0.056-2.905-0.056-6.19-0.881-8.964
		C40.302,122.746,41.364,121.748,42.426,120.75z M38.094,125.08c0.161,0.905,0.386,1.808,0.545,2.697
		c0.361,2.015,0.623,4.029,0.746,6.071c-0.696,0.948-1.378,1.907-2.082,2.849c-0.375-3.015-0.676-6.197-1.479-9.09
		C36.563,126.754,37.327,125.915,38.094,125.08z M31.384,132.925c1.049-1.307,2.142-2.628,3.251-3.943
		c0.325,2.952,1.127,5.989,1.841,8.809c-0.98,1.293-1.914,2.622-2.935,3.883c-1.284-2.767-1.878-5.508-2.404-8.447
		C31.212,133.133,31.311,133.015,31.384,132.925z M29.807,134.854c0.442,2.703,1.654,5.365,3.005,7.666
		c-1.368,1.658-2.756,3.298-4.234,4.868c0.119-3.235,0.072-6.85-0.746-10.107C28.522,136.417,29.187,135.607,29.807,134.854z
		 M26.359,139.184c0.58,3.082,1.299,6.162,1.516,9.307c0.001,0.012,0.018,0.007,0.02,0.019c-0.329,0.284-0.682,0.536-1.114,0.705
		c-0.874-2.173-1.813-4.322-2.918-6.411c-0.016-0.031-0.05-0.031-0.07-0.055C24.611,141.513,25.484,140.331,26.359,139.184z
		 M24.905,174.181c-2.79-3.812-3.42-9.943-4.183-14.471c-0.097-0.579-1.148-6.961-1.122-6.999c0.063-0.094,0.017-0.187-0.036-0.267
		c0.153-1.382,0.628-2.818,1.234-4.261c1.783,10.015,3.581,21.441,8.392,30.443C27.618,177.296,26.139,175.867,24.905,174.181z
		 M32.421,181.083c-0.007-0.055,0.029-0.092,0.01-0.15c-3.639-11.523-7.464-22.909-10.809-34.549
		c0.457-0.888,1.023-1.76,1.572-2.634c0.795,1.983,1.514,3.993,2.166,6.026c-0.419,0.461-0.207,1.342,0.411,1.658
		c-0.254,0.493-0.192,1.123,0.463,1.512c0.031,0.019,0.06,0.04,0.091,0.059c1.449,4.949,2.683,9.968,4.044,14.931
		c1.312,4.787,2.726,10.402,5.273,15.069C34.537,182.401,33.458,181.766,32.421,181.083z M39.575,184.969
		c-5.092-9.581-7.366-20.2-10.81-30.393c1.081,0.681,2.136,1.4,3.204,2.101c3.321,9.466,5.395,19.589,9.032,28.913
		C40.528,185.379,40.043,185.186,39.575,184.969z M43.208,186.552c-1.645-9.701-5.7-19.666-9.589-28.793
		c1.49,0.992,2.979,1.985,4.466,2.982c1.98,5.132,3.628,10.329,5.107,15.631c1.004,3.6,1.696,7.806,3.132,11.468
		C45.285,187.414,44.244,186.99,43.208,186.552z M49.072,188.973c-0.98-4.398-2.839-8.821-4.193-13.067
		c-1.5-4.7-3.007-9.464-5.023-13.983c0.945,0.631,1.887,1.267,2.835,1.893c1.051,0.694,2.317,1.668,3.679,2.621
		c0.784,8.04,3.337,16.465,6.357,24.09C51.521,190.004,50.311,189.482,49.072,188.973z M58.567,193.375
		c-0.068-0.049-0.105-0.112-0.185-0.155c-0.871-0.471-1.811-0.895-2.729-1.333c-2.109-8.297-5.833-16.103-7.824-24.479
		c1.571,0.994,3.216,1.839,4.798,2.102c0.094,0.108,0.234,0.161,0.362,0.229c1.122,4.788,1.883,9.676,2.93,14.473
		c0.485,2.224,0.931,6.863,2.9,8.985C58.733,193.254,58.655,193.319,58.567,193.375z M60.233,192.205
		c-0.478-0.998-0.672-2.497-0.92-3.316c-0.757-2.505-1.438-5.027-2.09-7.561c-0.998-3.881-2.003-7.784-3.205-11.616
		c0.082-0.052,0.163-0.106,0.248-0.153c0.057-0.008,0.117,0.007,0.173-0.003c0.368-0.061,0.593-0.292,0.754-0.567
		c0.623-0.357,1.202-0.788,1.809-1.171c2.345,7.165,2.564,15.248,5.985,21.866c0.029,0.057,0.08,0.059,0.116,0.102
		C62.161,190.604,61.266,191.465,60.233,192.205z M64.226,188.84c-1.339-7.153-3.371-14.872-6.173-21.702
		c1.558-1.031,3.063-2.149,4.531-3.323c0.974,3.426,1.96,6.848,3.015,10.25c0.913,2.945,1.533,7.005,3.585,9.408
		C67.634,185.351,66.021,187.174,64.226,188.84z M70.218,182.18c-0.31-2.863-2.004-5.978-2.942-8.577
		c-1.275-3.531-2.493-7.083-3.694-10.639c0.821-0.681,1.568-1.468,2.365-2.185c1.802,6.336,3.042,13.125,6.164,18.88
		C71.486,180.505,70.868,181.356,70.218,182.18z M73.362,177.952c-2.214-5.989-4.026-12.177-6.433-18.082
		c1.157-1.074,2.253-2.23,3.369-3.361c0.985,3.205,2.141,6.357,3.339,9.487c0.673,1.758,1.39,4.946,3.384,5.652
		c0.758,0.268,1.11-0.704,0.705-1.212c-3.203-4.015-4.846-9.883-6.65-14.703c1.041-1.072,2.048-2.183,3.06-3.288
		c0.483,2.779,1.03,5.546,1.728,8.277c0.707,2.766,1.566,6.287,3.344,8.766C77.253,172.3,75.349,175.16,73.362,177.952z
		 M80.466,167.701c-0.948-2.475-2.232-4.88-3.038-7.409c-0.931-2.918-1.642-5.893-2.336-8.873c0.876-0.97,1.709-1.967,2.568-2.95
		c0.425,3.071,1.094,6.092,1.897,9.091c0.647,2.418,1.298,5.464,2.768,7.642C81.7,166.03,81.07,166.853,80.466,167.701z
		 M83.549,163.59c-0.697-2.171-1.838-4.313-2.569-6.423c-1.083-3.125-1.937-6.349-2.529-9.606c0.789-0.91,1.538-1.801,2.32-2.711
		c0.513,2.791,1.074,5.576,1.656,8.349c0.559,2.663,0.678,6.561,2.487,8.689c0.007,0.009,0.021,0.009,0.028,0.017
		C84.474,162.464,84.001,163.018,83.549,163.59z M86.012,160.644c0.021-2.576-1.277-5.524-1.875-7.917
		c-0.761-3.042-1.49-6.099-2.293-9.134c0.733-0.859,1.454-1.699,2.188-2.558c0.872,5.83,1.946,11.876,4.356,17.145
		C87.582,158.989,86.766,159.789,86.012,160.644z M89.786,156.795c-1.601-5.736-3.165-11.418-4.501-17.223
		c0.331-0.387,0.659-0.77,0.992-1.159c0.994,3.333,1.791,6.721,2.548,10.118c0.518,2.326,0.94,5.098,1.847,7.528
		C90.385,156.312,90.066,156.536,89.786,156.795z M93.365,153.821c-0.307,0.223-0.568,0.486-0.865,0.719
		c-0.701-2.156-1.516-4.311-2.076-6.45c-0.955-3.652-1.862-7.314-3.129-10.868c0.26-0.304,0.527-0.617,0.783-0.916
		c0.411,0.5,0.822,1,1.233,1.5c0.521,0.779,1.334,0.909,2.028,0.681c0.381,3.155,0.98,6.294,1.711,9.373
		c0.396,1.668,0.812,3.86,1.551,5.779C94.212,153.516,93.787,153.515,93.365,153.821z M100.967,158.596
		c-1.043-3.159-3.784-14.778-4.075-16.402c-0.128-0.713-1.352-0.551-1.269,0.172c0.54,4.731,1.451,9.486,2.656,14.091
		c0.021,0.079,0.059,0.21,0.088,0.318c-0.204-0.152-0.42-0.283-0.624-0.437c0.087-0.166,0.117-0.363,0.03-0.587
		c-2.156-5.604-3.841-11.161-5.16-16.971c2.619,1.955,5.466,3.568,8.39,5.051c-0.302,0.024-0.595,0.224-0.573,0.578
		c0.308,4.977,0.997,10.391,2.361,15.388C102.187,159.39,101.566,159.013,100.967,158.596z M105.432,161.53
		c-1.248-5.763-2.795-11.442-3.817-17.283c-0.013-0.073-0.071-0.099-0.104-0.153c1.052,0.524,2.138,0.982,3.209,1.47
		c-0.134,1.587,1.515,5.062,1.79,5.808c1.602,4.348,3.381,8.769,4.313,13.332C109.018,163.659,107.194,162.645,105.432,161.53z
		 M112.717,165.819c0.039-0.104,0.12-0.183,0.103-0.314c-0.508-3.85-2.13-7.575-3.555-11.159c-0.248-0.624-3.126-6.511-3.823-8.451
		c2.001,0.896,4.027,1.711,6.049,2.537c0.321,4.217,1.371,8.393,2.52,12.445c0.555,1.957,1.139,4.477,2.033,6.736
		C114.943,167.009,113.809,166.435,112.717,165.819z M118.866,169.135c-0.915-2.926-2.319-5.802-3.248-8.7
		c-1.211-3.78-2.194-7.614-2.947-11.507c0.5,0.2,0.993,0.431,1.493,0.626c0.728,0.285,1.685-0.177,2.041-0.831
		c0.07-0.129,0.132-0.263,0.202-0.392c3.379,7.228,3.32,15.877,6.548,23.01C121.58,170.615,120.231,169.867,118.866,169.135z
		 M125.915,172.87c-1.406-5.018-3.043-9.993-4.402-15.04c-1.021-3.791-2.284-7.586-4.393-10.881c1.161-2.19,2.271-4.417,3.346-6.668
		c4.066,11.487,5.723,23.924,10.808,34.906C129.847,174.791,128.111,173.982,125.915,172.87z M133.075,175.461
		c-2.973-12.181-6.756-24.865-12.04-36.396c0.849-1.81,1.655-3.65,2.453-5.496c1.839,7.445,3.506,14.928,5.538,22.329
		c1.504,5.476,3.066,13.219,7.126,17.637C135.296,174.822,134.334,175.44,133.075,175.461z M137.084,171.794
		c-4.911-13.028-9.167-26.033-13.065-39.416c0.536-1.26,0.983-2.577,1.496-3.851c3.513,6.443,5.377,13.694,7.324,20.741
		c1.485,5.376,2.693,12.051,6.099,16.751C138.296,168.448,137.702,170.362,137.084,171.794z M139.771,162.876
		c-4.287-11.812-7.001-25.053-13.782-35.569c0.952-2.403,1.79-4.877,2.669-7.325c2.284,8.446,6.574,16.068,9.54,24.275
		c0.968,2.677,1.216,8.198,3.778,9.893c0.033,0.022,0.067,0.018,0.1,0.033C141.317,157.083,140.517,159.972,139.771,162.876z
		 M142.699,151.839c-0.009-0.015-0.008-0.021-0.018-0.036c-0.382-1.078-0.73-2.166-1.076-3.256c-0.629-1.981-1.159-4.049-2.011-5.95
		c-3.47-7.747-7.7-15.377-10.179-23.503c-0.056-0.182-0.181-0.267-0.32-0.309c0.706-1.997,1.331-4.042,1.993-6.065
		c1.415,1.638,2.333,4.557,3.005,6.154c1.521,3.611,2.919,7.269,4.276,10.943c1.765,4.781,2.916,11.558,5.994,15.818
		C143.813,147.705,143.244,149.769,142.699,151.839z M145.241,142.365c-1.558-5.851-4.885-11.982-7.028-17.281
		c-1.238-3.063-3.381-11.01-6.898-13.056c0.861-2.65,1.649-5.338,2.443-8.023c2.441,5.072,4.529,10.284,6.563,15.548
		c1.81,4.684,3.272,10.492,6.595,14.361c0.179,0.208,0.419,0.203,0.615,0.099C146.78,136.8,145.986,139.576,145.241,142.365z
		 M147.774,133.127c-1.417-5.468-4.507-10.757-6.657-15.988c-2.049-4.987-4.236-9.935-6.907-14.621
		c0.47-1.618,0.895-3.255,1.343-4.883c1.583,5.228,4.418,10.432,6.612,15.234c0.855,1.871,4.237,11.914,7.296,14.1
		C148.907,129.024,148.33,131.072,147.774,133.127z M150.048,124.836c-0.692-1.319-1.521-3.272-1.713-3.638
		c-1.795-3.416-3.509-6.876-5.198-10.346c-0.656-1.347-5.107-11.684-7.124-14.883c0.419-1.549,0.754-3.125,1.155-4.681
		c5.449,9.255,9.783,18.856,14.209,28.704C150.939,121.608,150.486,123.22,150.048,124.836z M152.253,116.797
		c-2.287-5.568-4.836-11.036-7.614-16.369c-1.859-3.57-3.974-6.988-6.188-10.345c-0.155-0.236-0.445-0.557-0.772-0.867
		c0.547-2.169,1.013-4.357,1.53-6.534c1.918,5.227,4.898,9.953,7.853,14.66c1.838,2.928,3.408,5.776,4.703,9
		c0.365,0.91,0.75,1.858,1.663,2.293c0.418,0.199,0.798,0.084,1.07-0.281l0.113-0.152
		C153.825,111.067,153.032,113.93,152.253,116.797z M154.819,107.442c-0.173-0.401-0.802-0.621-1.213-0.298
		c1.586-1.245-4.188-9.383-5.042-10.679c-3.322-5.045-6.403-10.053-8.943-15.541c0.459-1.963,0.865-3.933,1.304-5.899
		c4.52,9.999,8.909,20.263,14.454,29.686c0.041,0.07,0.108,0.067,0.156,0.12C155.298,105.7,155.058,106.571,154.819,107.442z
		 M156.222,102.323c-4.664-9.755-9.816-19.38-14.941-28.908c0.344-1.562,0.656-3.122,0.99-4.684
		c2.851,5.465,5.411,11.085,8.018,16.667c1.932,4.136,3.942,9.142,7.036,12.772C156.966,99.559,156.609,100.95,156.222,102.323z
		 M158.019,95.443c-5.396-9.314-10.061-18.94-15.412-28.306c0.37-1.752,0.715-3.497,1.074-5.247
		c2.768,4.569,5.608,9.095,8.404,13.646c2.228,3.626,5.994,8.237,7.609,12.605C159.16,90.591,158.612,93.031,158.019,95.443z
		 M160.372,84.99c-1.636-3.041-4.288-6.241-5.288-7.805c-3.619-5.662-7.438-11.195-11.086-16.838
		c0.323-1.589,0.607-3.153,0.922-4.739c2.463,4.445,4.819,8.949,7.294,13.389c2.367,4.247,5.037,9.277,8.847,12.528
		C160.828,82.679,160.611,83.843,160.372,84.99z M161.47,79.461c-2.98-4.303-6.224-8.366-8.915-12.933
		c-2.451-4.158-4.832-8.353-7.332-12.479c0.257-1.302,0.492-2.585,0.745-3.885c4.403,2.135,7.425,8.153,9.714,11.99
		c1.762,2.953,3.762,8.986,6.998,10.602c0.022,0.011,0.05,0.004,0.074,0.012C162.329,75.003,161.908,77.239,161.47,79.461z
		 M163.063,71.152c-1.883-4.347-5.051-8.641-7.624-12.521c-2.164-3.264-5.193-8.178-9.257-9.588c0.57-2.947,1.118-5.868,1.67-8.794
		c2.374,4.752,4.918,9.431,7.523,14.051c2.464,4.371,4.793,10.154,8.219,14.039C163.418,69.276,163.239,70.215,163.063,71.152z
		 M164.204,65.112c-1.819-3.501-4.531-6.878-6.457-10.031c-3.307-5.413-6.519-10.867-9.595-16.41
		c0.28-1.486,0.534-2.928,0.809-4.407c1.614,4.085,5.441,8.284,7.612,11.599c2.891,4.416,6.263,8.931,8.698,13.715
		C164.912,61.422,164.554,63.267,164.204,65.112z M165.916,56.323c-1.911-3.329-4.77-6.596-6.558-9.208
		c-2.209-3.227-4.418-6.457-6.66-9.661c-0.944-1.349-2.712-3.203-3.429-4.872c0.332-1.793,0.653-3.565,0.983-5.354
		c2.404,4.59,4.946,9.1,7.714,13.486c2.493,3.951,5.246,8.6,8.684,12.059C166.405,53.957,166.154,55.138,165.916,56.323z
		 M167.248,49.903c-5.861-7.901-11.629-15.697-16.714-24.209c0.131-0.716,0.263-1.433,0.395-2.151
		c0.904,1.273,1.813,2.533,2.71,3.774c2.714,3.754,5.611,7.384,8.496,11.006c1.726,2.167,3.678,5.511,6.136,7.015
		C167.921,46.857,167.577,48.377,167.248,49.903z M168.913,42.642c-2.422-4.708-8.323-9.621-11.26-13.27
		c-2.484-3.087-5.183-6.353-7.686-9.774c0.264-0.864-0.175-1.933-1.294-1.867c-0.014,0.001-0.028,0.004-0.042,0.004
		c-2.226-3.212-4.175-6.57-5.565-10.062c1.226,0.248,2.714,0.303,4.275,0.265c2.068,7.003,7.363,13.802,11.271,19.664
		c1.959,2.939,6.522,11.664,10.817,13.071C169.264,41.333,169.073,41.981,168.913,42.642z M169.91,38.837
		c-4.181-3.686-7.476-8.919-10.621-13.351c-3.795-5.348-8.417-11.322-10.893-17.59c1.425-0.072,2.848-0.214,4.207-0.364
		c4.983,9.381,12.68,17.127,18.015,26.242c0.128,0.219,0.392,0.289,0.631,0.255C170.797,35.629,170.327,37.221,169.91,38.837z
		 M171.571,32.873c-0.855-3.434-5.12-7.461-7.055-10.026c-3.788-5.018-7.533-10.114-10.909-15.424
		c1.264-0.146,2.397-0.284,3.312-0.371c2.863,3.786,5.426,7.798,7.988,11.79c1.947,3.033,3.949,7.323,7.272,9.046
		c0.726,0.376,1.277-0.614,0.63-1.078c-3.234-2.326-5.722-7.162-8.005-10.355c-2.258-3.158-4.349-6.496-6.847-9.481
		c0.042-0.002,0.099-0.008,0.138-0.009c1.127-0.038,2.254-0.037,3.381-0.058c1.997,3.778,4.251,7.44,6.729,10.909
		c1.174,1.644,2.507,3.125,3.466,4.915c0.465,0.867,0.846,2.128,1.827,2.561c0.129,0.057,0.281,0.095,0.431,0.115
		C173.094,27.872,172.299,30.357,171.571,32.873z M174.923,22.614c-0.28-0.113-0.606-0.068-0.87,0.14
		c-0.32-0.618-0.676-1.224-1.028-1.823c-0.913-1.554-2.248-2.838-3.383-4.223c-2.535-3.094-4.666-6.471-6.831-9.823
		c1.056-0.013,2.112,0.031,3.168,0.03c0.006,0.043-0.001,0.077,0.008,0.122c0.068,0.323,0.496,0.352,0.687,0.16
		c0.035,0.092,0.096,0.2,0.206,0.325c0.45,0.51,0.841,1.074,1.25,1.618c1.032,1.373,2.002,2.792,2.974,4.208
		c0.917,1.334,1.822,2.676,2.749,4.003c0.452,0.647,1.007,1.683,1.838,1.892c0.239,0.06,0.441-0.007,0.608-0.122
		C175.844,20.285,175.35,21.434,174.923,22.614z M176.631,18.281c-0.254-1.261-1.818-2.659-2.555-3.654
		c-1.347-1.819-2.688-3.642-4.075-5.432c-0.526-0.679-1.131-1.576-1.841-2.261c1.269,0.013,2.537,0.008,3.806,0.036
		c0.729,1.286,1.503,2.547,2.341,3.762c0.976,1.415,2.177,3.355,3.726,4.218C177.559,16.058,177.078,17.162,176.631,18.281z
		 M178.688,13.394c-1.086-1.16-2.398-2.151-3.441-3.386c-0.812-0.961-1.549-1.977-2.275-3.001c2.652,0.157,5.568,1.063,8.245,1.143
		C180.307,9.866,179.476,11.619,178.688,13.394z"/>
</g>
</svg>
